{
.appVersion = "74";
DisplayStrings = (
y,

glyphs = (
{
glyphname = A;
lastChange = "2017-12-06 15:25:05 +0000";
layers = (
{
layerId = "AD39E6C8-8F9C-453F-B2FE-0131B3A51D2D";
paths = (
{
closed = 1;
nodes = (
"449 267 LINE",
"267 267 LINE",
"358 586 LINE"
);
},
{
closed = 1;
nodes = (
"289 834 LINE",
"66 0 LINE",
"191 0 LINE",
"233 142 LINE",
"486 142 LINE",
"525 0 LINE",
"650 0 LINE",
"429 834 LINE"
);
}
);
width = 716;
}
);
unicode = 0041;
},
{
glyphname = Adieresis;
lastChange = "2017-12-06 15:25:05 +0000";
layers = (
{
layerId = "AD39E6C8-8F9C-453F-B2FE-0131B3A51D2D";
paths = (
{
closed = 1;
nodes = (
"301 972 OFFCURVE",
"269 1002 OFFCURVE",
"233 1002 CURVE",
"196 1002 OFFCURVE",
"166 972 OFFCURVE",
"166 936 CURVE",
"166 898 OFFCURVE",
"196 869 OFFCURVE",
"233 869 CURVE",
"269 869 OFFCURVE",
"301 898 OFFCURVE",
"301 936 CURVE"
);
},
{
closed = 1;
nodes = (
"552 972 OFFCURVE",
"521 1002 OFFCURVE",
"484 1002 CURVE",
"446 1002 OFFCURVE",
"417 972 OFFCURVE",
"417 936 CURVE",
"417 898 OFFCURVE",
"446 869 OFFCURVE",
"484 869 CURVE",
"521 869 OFFCURVE",
"552 898 OFFCURVE",
"552 936 CURVE"
);
},
{
closed = 1;
nodes = (
"449 268 LINE",
"268 268 LINE",
"357 587 LINE"
);
},
{
closed = 1;
nodes = (
"286 834 LINE",
"66 0 LINE",
"192 0 LINE",
"233 143 LINE",
"485 143 LINE",
"525 0 LINE",
"651 0 LINE",
"429 834 LINE"
);
}
);
width = 717;
}
);
unicode = 00C4;
},
{
glyphname = Aring;
lastChange = "2017-12-06 15:25:05 +0000";
layers = (
{
layerId = "AD39E6C8-8F9C-453F-B2FE-0131B3A51D2D";
paths = (
{
closed = 1;
nodes = (
"267 267 LINE",
"358 586 LINE",
"448 267 LINE"
);
},
{
closed = 1;
nodes = (
"289 834 LINE",
"66 0 LINE",
"191 0 LINE",
"233 142 LINE",
"485 142 LINE",
"524 0 LINE",
"650 0 LINE",
"429 834 LINE"
);
},
{
closed = 1;
nodes = (
"326 986 OFFCURVE",
"341 1000 OFFCURVE",
"358 1000 CURVE",
"377 1000 OFFCURVE",
"392 986 OFFCURVE",
"392 969 CURVE",
"392 949 OFFCURVE",
"377 934 OFFCURVE",
"358 934 CURVE",
"341 934 OFFCURVE",
"326 949 OFFCURVE",
"326 969 CURVE"
);
},
{
closed = 1;
nodes = (
"456 1020 OFFCURVE",
"412 1064 OFFCURVE",
"358 1064 CURVE",
"306 1064 OFFCURVE",
"262 1020 OFFCURVE",
"262 969 CURVE",
"262 915 OFFCURVE",
"306 873 OFFCURVE",
"358 873 CURVE",
"412 873 OFFCURVE",
"456 915 OFFCURVE",
"456 969 CURVE"
);
}
);
width = 716;
}
);
unicode = 00C5;
},
{
glyphname = B;
lastChange = "2017-12-06 15:25:05 +0000";
layers = (
{
layerId = "AD39E6C8-8F9C-453F-B2FE-0131B3A51D2D";
paths = (
{
closed = 1;
nodes = (
"191 709 LINE",
"353 709 LINE",
"402 709 OFFCURVE",
"441 670 OFFCURVE",
"441 621 CURVE",
"441 589 LINE",
"441 540 OFFCURVE",
"402 500 OFFCURVE",
"353 500 CURVE",
"191 500 LINE"
);
},
{
closed = 1;
nodes = (
"66 0 LINE",
"191 0 LINE",
"383 0 LINE",
"508 0 OFFCURVE",
"608 100 OFFCURVE",
"608 225 CURVE",
"608 275 LINE",
"608 346 OFFCURVE",
"577 412 OFFCURVE",
"520 454 CURVE",
"550 493 OFFCURVE",
"566 540 OFFCURVE",
"566 589 CURVE",
"566 621 LINE",
"566 739 OFFCURVE",
"471 834 OFFCURVE",
"353 834 CURVE",
"66 834 LINE"
);
},
{
closed = 1;
nodes = (
"383 375 LINE",
"439 375 OFFCURVE",
"483 331 OFFCURVE",
"483 275 CURVE",
"483 225 LINE",
"483 169 OFFCURVE",
"439 125 OFFCURVE",
"383 125 CURVE",
"191 125 LINE",
"191 375 LINE"
);
}
);
width = 674;
}
);
unicode = 0042;
},
{
glyphname = C;
lastChange = "2017-12-06 15:25:05 +0000";
layers = (
{
layerId = "AD39E6C8-8F9C-453F-B2FE-0131B3A51D2D";
paths = (
{
closed = 1;
nodes = (
"66 272 LINE",
"66 120 OFFCURVE",
"189 0 OFFCURVE",
"339 0 CURVE",
"488 0 OFFCURVE",
"609 120 OFFCURVE",
"609 272 CURVE",
"609 278 OFFCURVE",
"609 285 OFFCURVE",
"609 291 CURVE",
"483 291 LINE",
"483 285 OFFCURVE",
"483 278 OFFCURVE",
"483 272 CURVE",
"483 191 OFFCURVE",
"420 125 OFFCURVE",
"339 125 CURVE",
"258 125 OFFCURVE",
"191 191 OFFCURVE",
"191 272 CURVE",
"191 565 LINE",
"191 643 OFFCURVE",
"258 709 OFFCURVE",
"339 709 CURVE",
"420 709 OFFCURVE",
"483 643 OFFCURVE",
"483 565 CURVE",
"609 565 LINE",
"609 714 OFFCURVE",
"488 834 OFFCURVE",
"339 834 CURVE",
"189 834 OFFCURVE",
"66 714 OFFCURVE",
"66 565 CURVE"
);
}
);
width = 675;
}
);
unicode = 0043;
},
{
glyphname = D;
lastChange = "2017-12-06 15:25:05 +0000";
layers = (
{
layerId = "AD39E6C8-8F9C-453F-B2FE-0131B3A51D2D";
paths = (
{
closed = 1;
nodes = (
"192 709 LINE",
"358 709 LINE",
"427 709 OFFCURVE",
"483 653 OFFCURVE",
"483 584 CURVE",
"483 250 LINE",
"483 181 OFFCURVE",
"427 125 OFFCURVE",
"358 125 CURVE",
"192 125 LINE"
);
},
{
closed = 1;
nodes = (
"358 0 LINE",
"497 0 OFFCURVE",
"609 112 OFFCURVE",
"609 250 CURVE",
"609 584 LINE",
"609 722 OFFCURVE",
"497 834 OFFCURVE",
"358 834 CURVE",
"66 834 LINE",
"66 0 LINE"
);
}
);
width = 675;
}
);
unicode = 0044;
},
{
glyphname = E;
lastChange = "2017-12-06 15:25:05 +0000";
layers = (
{
layerId = "AD39E6C8-8F9C-453F-B2FE-0131B3A51D2D";
paths = (
{
closed = 1;
nodes = (
"524 0 LINE",
"524 125 LINE",
"191 125 LINE",
"191 376 LINE",
"416 376 LINE",
"416 501 LINE",
"191 501 LINE",
"191 709 LINE",
"524 709 LINE",
"524 834 LINE",
"66 834 LINE",
"66 0 LINE"
);
}
);
width = 590;
}
);
unicode = 0045;
},
{
glyphname = F;
lastChange = "2017-12-06 15:25:05 +0000";
layers = (
{
layerId = "AD39E6C8-8F9C-453F-B2FE-0131B3A51D2D";
paths = (
{
closed = 1;
nodes = (
"525 834 LINE",
"525 709 LINE",
"191 709 LINE",
"191 500 LINE",
"416 500 LINE",
"416 375 LINE",
"191 375 LINE",
"191 0 LINE",
"66 0 LINE",
"66 834 LINE"
);
}
);
width = 591;
}
);
unicode = 0046;
},
{
glyphname = G;
lastChange = "2017-12-06 15:25:05 +0000";
layers = (
{
layerId = "AD39E6C8-8F9C-453F-B2FE-0131B3A51D2D";
paths = (
{
closed = 1;
nodes = (
"66 272 LINE",
"66 122 OFFCURVE",
"188 0 OFFCURVE",
"338 0 CURVE",
"393 0 OFFCURVE",
"446 17 OFFCURVE",
"492 48 CURVE",
"525 0 LINE",
"608 0 LINE",
"608 459 LINE",
"338 459 LINE",
"338 334 LINE",
"483 334 LINE",
"483 280 LINE",
"483 276 OFFCURVE",
"483 274 OFFCURVE",
"483 272 CURVE",
"483 191 OFFCURVE",
"418 125 OFFCURVE",
"338 125 CURVE",
"257 125 OFFCURVE",
"191 191 OFFCURVE",
"191 272 CURVE",
"191 564 LINE",
"191 643 OFFCURVE",
"257 709 OFFCURVE",
"338 709 CURVE",
"418 709 OFFCURVE",
"483 643 OFFCURVE",
"483 564 CURVE",
"608 564 LINE",
"608 713 OFFCURVE",
"487 834 OFFCURVE",
"338 834 CURVE",
"188 834 OFFCURVE",
"66 713 OFFCURVE",
"66 564 CURVE"
);
}
);
width = 674;
}
);
unicode = 0047;
},
{
glyphname = H;
lastChange = "2017-12-06 15:25:05 +0000";
layers = (
{
layerId = "AD39E6C8-8F9C-453F-B2FE-0131B3A51D2D";
paths = (
{
closed = 1;
nodes = (
"486 375 LINE",
"193 375 LINE",
"193 0 LINE",
"66 0 LINE",
"66 834 LINE",
"193 834 LINE",
"193 502 LINE",
"486 502 LINE",
"486 834 LINE",
"610 834 LINE",
"610 0 LINE",
"486 0 LINE"
);
}
);
width = 676;
}
);
unicode = 0048;
},
{
glyphname = I;
lastChange = "2017-12-06 15:25:06 +0000";
layers = (
{
layerId = "AD39E6C8-8F9C-453F-B2FE-0131B3A51D2D";
paths = (
{
closed = 1;
nodes = (
"66 834 LINE",
"191 834 LINE",
"191 0 LINE",
"66 0 LINE"
);
}
);
width = 257;
}
);
unicode = 0049;
},
{
glyphname = J;
lastChange = "2017-12-06 15:25:06 +0000";
layers = (
{
layerId = "AD39E6C8-8F9C-453F-B2FE-0131B3A51D2D";
paths = (
{
closed = 1;
nodes = (
"66 229 LINE",
"66 102 OFFCURVE",
"168 0 OFFCURVE",
"295 0 CURVE",
"422 0 OFFCURVE",
"526 102 OFFCURVE",
"526 229 CURVE",
"526 834 LINE",
"399 834 LINE",
"399 229 LINE",
"399 172 OFFCURVE",
"353 125 OFFCURVE",
"295 125 CURVE",
"237 125 OFFCURVE",
"191 172 OFFCURVE",
"191 229 CURVE"
);
}
);
width = 592;
}
);
unicode = 004A;
},
{
glyphname = K;
lastChange = "2017-12-06 15:25:06 +0000";
layers = (
{
layerId = "AD39E6C8-8F9C-453F-B2FE-0131B3A51D2D";
paths = (
{
closed = 1;
nodes = (
"191 0 LINE",
"66 0 LINE",
"66 834 LINE",
"191 834 LINE",
"191 433 LINE",
"458 834 LINE",
"608 834 LINE",
"370 479 LINE",
"608 0 LINE",
"466 0 LINE",
"291 358 LINE",
"191 208 LINE"
);
}
);
width = 674;
}
);
unicode = 004B;
},
{
glyphname = L;
lastChange = "2017-12-06 15:25:06 +0000";
layers = (
{
layerId = "AD39E6C8-8F9C-453F-B2FE-0131B3A51D2D";
paths = (
{
closed = 1;
nodes = (
"66 834 LINE",
"191 834 LINE",
"191 125 LINE",
"483 125 LINE",
"483 0 LINE",
"66 0 LINE"
);
}
);
width = 549;
}
);
unicode = 004C;
},
{
glyphname = M;
lastChange = "2017-12-06 15:25:06 +0000";
layers = (
{
layerId = "AD39E6C8-8F9C-453F-B2FE-0131B3A51D2D";
paths = (
{
closed = 1;
nodes = (
"607 542 LINE",
"607 0 LINE",
"732 0 LINE",
"732 834 LINE",
"590 834 LINE",
"397 359 LINE",
"205 834 LINE",
"66 834 LINE",
"66 0 LINE",
"189 0 LINE",
"189 542 LINE",
"397 0 LINE"
);
}
);
width = 798;
}
);
unicode = 004D;
},
{
glyphname = N;
lastChange = "2017-12-06 15:25:06 +0000";
layers = (
{
layerId = "AD39E6C8-8F9C-453F-B2FE-0131B3A51D2D";
paths = (
{
closed = 1;
nodes = (
"66 834 LINE",
"191 834 LINE",
"483 272 LINE",
"483 834 LINE",
"608 834 LINE",
"608 0 LINE",
"483 0 LINE",
"191 563 LINE",
"191 0 LINE",
"66 0 LINE"
);
}
);
width = 674;
}
);
unicode = 004E;
},
{
glyphname = O;
lastChange = "2017-12-06 15:25:06 +0000";
layers = (
{
layerId = "AD39E6C8-8F9C-453F-B2FE-0131B3A51D2D";
paths = (
{
closed = 1;
nodes = (
"483 191 OFFCURVE",
"418 125 OFFCURVE",
"338 125 CURVE",
"257 125 OFFCURVE",
"191 191 OFFCURVE",
"191 272 CURVE",
"191 564 LINE",
"191 643 OFFCURVE",
"257 709 OFFCURVE",
"338 709 CURVE",
"418 709 OFFCURVE",
"483 643 OFFCURVE",
"483 564 CURVE",
"483 272 LINE"
);
},
{
closed = 1;
nodes = (
"608 564 LINE",
"608 713 OFFCURVE",
"487 834 OFFCURVE",
"338 834 CURVE",
"188 834 OFFCURVE",
"66 713 OFFCURVE",
"66 564 CURVE",
"66 272 LINE",
"66 122 OFFCURVE",
"188 0 OFFCURVE",
"338 0 CURVE",
"487 0 OFFCURVE",
"608 122 OFFCURVE",
"608 272 CURVE"
);
}
);
width = 674;
}
);
unicode = 004F;
},
{
glyphname = Odieresis;
lastChange = "2017-12-06 15:25:06 +0000";
layers = (
{
layerId = "AD39E6C8-8F9C-453F-B2FE-0131B3A51D2D";
paths = (
{
closed = 1;
nodes = (
"482 191 OFFCURVE",
"419 125 OFFCURVE",
"338 125 CURVE",
"258 125 OFFCURVE",
"191 191 OFFCURVE",
"191 272 CURVE",
"191 563 LINE",
"191 644 OFFCURVE",
"258 708 OFFCURVE",
"338 708 CURVE",
"419 708 OFFCURVE",
"482 644 OFFCURVE",
"482 563 CURVE",
"482 272 LINE"
);
},
{
closed = 1;
nodes = (
"608 563 LINE",
"608 713 OFFCURVE",
"487 834 OFFCURVE",
"338 834 CURVE",
"189 834 OFFCURVE",
"66 713 OFFCURVE",
"66 563 CURVE",
"66 272 LINE",
"66 123 OFFCURVE",
"189 0 OFFCURVE",
"338 0 CURVE",
"487 0 OFFCURVE",
"608 123 OFFCURVE",
"608 272 CURVE"
);
},
{
closed = 1;
nodes = (
"146 971 OFFCURVE",
"177 1000 OFFCURVE",
"213 1000 CURVE",
"249 1000 OFFCURVE",
"279 971 OFFCURVE",
"279 933 CURVE",
"279 897 OFFCURVE",
"249 868 OFFCURVE",
"213 868 CURVE",
"177 868 OFFCURVE",
"146 897 OFFCURVE",
"146 933 CURVE",
"146 933 LINE"
);
},
{
closed = 1;
nodes = (
"397 971 OFFCURVE",
"426 1000 OFFCURVE",
"463 1000 CURVE",
"500 1000 OFFCURVE",
"529 971 OFFCURVE",
"529 933 CURVE",
"529 897 OFFCURVE",
"500 868 OFFCURVE",
"463 868 CURVE",
"426 868 OFFCURVE",
"397 897 OFFCURVE",
"397 933 CURVE",
"397 933 LINE"
);
}
);
width = 674;
}
);
unicode = 00D6;
},
{
glyphname = P;
lastChange = "2017-12-06 15:25:06 +0000";
layers = (
{
layerId = "AD39E6C8-8F9C-453F-B2FE-0131B3A51D2D";
paths = (
{
closed = 1;
nodes = (
"191 709 LINE",
"354 709 LINE",
"402 709 OFFCURVE",
"441 669 OFFCURVE",
"441 622 CURVE",
"441 588 LINE",
"441 540 OFFCURVE",
"402 500 OFFCURVE",
"354 500 CURVE",
"191 500 LINE"
);
},
{
closed = 1;
nodes = (
"354 375 LINE",
"471 375 OFFCURVE",
"566 471 OFFCURVE",
"566 588 CURVE",
"566 622 LINE",
"566 739 OFFCURVE",
"471 834 OFFCURVE",
"354 834 CURVE",
"66 834 LINE",
"66 0 LINE",
"191 0 LINE",
"191 375 LINE"
);
}
);
width = 632;
}
);
unicode = 0050;
},
{
glyphname = Q;
lastChange = "2017-12-06 15:25:06 +0000";
layers = (
{
layerId = "AD39E6C8-8F9C-453F-B2FE-0131B3A51D2D";
paths = (
{
closed = 1;
nodes = (
"483 564 LINE",
"483 643 OFFCURVE",
"419 710 OFFCURVE",
"338 710 CURVE",
"258 710 OFFCURVE",
"192 643 OFFCURVE",
"192 564 CURVE",
"192 272 LINE",
"192 191 OFFCURVE",
"258 125 OFFCURVE",
"338 125 CURVE",
"419 125 OFFCURVE",
"483 191 OFFCURVE",
"483 272 CURVE"
);
},
{
closed = 1;
nodes = (
"610 212 OFFCURVE",
"589 155 OFFCURVE",
"554 107 CURVE",
"578 95 OFFCURVE",
"604 88 OFFCURVE",
"630 88 CURVE",
"630 -37 LINE",
"570 -37 OFFCURVE",
"514 -8 OFFCURVE",
"480 41 CURVE",
"438 14 OFFCURVE",
"389 0 OFFCURVE",
"338 0 CURVE",
"188 0 OFFCURVE",
"66 122 OFFCURVE",
"66 272 CURVE",
"66 564 LINE",
"66 714 OFFCURVE",
"188 834 OFFCURVE",
"338 834 CURVE",
"487 834 OFFCURVE",
"610 714 OFFCURVE",
"610 564 CURVE",
"610 272 LINE"
);
}
);
width = 696;
}
);
unicode = 0051;
},
{
glyphname = R;
lastChange = "2017-12-06 15:25:06 +0000";
layers = (
{
layerId = "AD39E6C8-8F9C-453F-B2FE-0131B3A51D2D";
paths = (
{
closed = 1;
nodes = (
"191 0 LINE",
"66 0 LINE",
"66 834 LINE",
"354 834 LINE",
"471 834 OFFCURVE",
"566 738 OFFCURVE",
"566 620 CURVE",
"566 587 LINE",
"566 498 OFFCURVE",
"510 418 OFFCURVE",
"426 388 CURVE",
"566 0 LINE",
"433 0 LINE",
"297 375 LINE",
"191 375 LINE"
);
},
{
closed = 1;
nodes = (
"354 500 LINE",
"402 500 OFFCURVE",
"441 539 OFFCURVE",
"441 587 CURVE",
"441 620 LINE",
"441 669 OFFCURVE",
"402 709 OFFCURVE",
"354 709 CURVE",
"191 709 LINE",
"191 500 LINE"
);
}
);
width = 632;
}
);
unicode = 0052;
},
{
glyphname = S;
lastChange = "2017-12-06 15:25:06 +0000";
layers = (
{
layerId = "AD39E6C8-8F9C-453F-B2FE-0131B3A51D2D";
paths = (
{
closed = 1;
nodes = (
"308 834 LINE",
"186 834 OFFCURVE",
"88 735 OFFCURVE",
"88 612 CURVE",
"88 519 OFFCURVE",
"147 435 OFFCURVE",
"235 404 CURVE",
"408 344 LINE",
"433 335 OFFCURVE",
"455 317 OFFCURVE",
"469 294 CURVE",
"481 272 OFFCURVE",
"483 245 OFFCURVE",
"475 222 CURVE",
"455 163 OFFCURVE",
"399 125 OFFCURVE",
"338 125 CURVE",
"257 125 OFFCURVE",
"191 191 OFFCURVE",
"191 270 CURVE",
"66 270 LINE",
"66 122 OFFCURVE",
"188 0 OFFCURVE",
"338 0 CURVE",
"371 0 LINE",
"502 0 OFFCURVE",
"608 106 OFFCURVE",
"608 237 CURVE",
"608 338 OFFCURVE",
"545 429 OFFCURVE",
"450 462 CURVE",
"277 522 LINE",
"239 536 OFFCURVE",
"213 572 OFFCURVE",
"213 612 CURVE",
"213 666 OFFCURVE",
"256 709 OFFCURVE",
"308 709 CURVE",
"366 709 LINE",
"420 709 OFFCURVE",
"463 666 OFFCURVE",
"463 612 CURVE",
"588 612 LINE",
"588 735 OFFCURVE",
"489 834 OFFCURVE",
"366 834 CURVE"
);
},
{
closed = 0;
nodes = (
"308 709 LINE",
"366 709 LINE"
);
}
);
width = 674;
}
);
unicode = 0053;
},
{
glyphname = T;
lastChange = "2017-12-06 15:25:06 +0000";
layers = (
{
layerId = "AD39E6C8-8F9C-453F-B2FE-0131B3A51D2D";
paths = (
{
closed = 1;
nodes = (
"606 834 LINE",
"606 709 LINE",
"398 709 LINE",
"398 0 LINE",
"274 0 LINE",
"274 709 LINE",
"66 709 LINE",
"66 834 LINE"
);
}
);
width = 672;
}
);
unicode = 0054;
},
{
glyphname = U;
lastChange = "2017-12-06 15:25:06 +0000";
layers = (
{
layerId = "AD39E6C8-8F9C-453F-B2FE-0131B3A51D2D";
paths = (
{
closed = 1;
nodes = (
"66 122 OFFCURVE",
"187 0 OFFCURVE",
"338 0 CURVE",
"486 0 OFFCURVE",
"608 122 OFFCURVE",
"608 270 CURVE",
"608 834 LINE",
"483 834 LINE",
"483 270 LINE",
"483 191 OFFCURVE",
"417 125 OFFCURVE",
"338 125 CURVE",
"257 125 OFFCURVE",
"191 191 OFFCURVE",
"191 270 CURVE",
"191 834 LINE",
"66 834 LINE",
"66 270 LINE"
);
}
);
width = 674;
}
);
unicode = 0055;
},
{
glyphname = V;
lastChange = "2017-12-06 15:25:06 +0000";
layers = (
{
layerId = "AD39E6C8-8F9C-453F-B2FE-0131B3A51D2D";
paths = (
{
closed = 1;
nodes = (
"200 834 LINE",
"358 250 LINE",
"517 834 LINE",
"650 834 LINE",
"420 0 LINE",
"295 0 LINE",
"66 834 LINE"
);
}
);
width = 716;
}
);
unicode = 0056;
},
{
glyphname = W;
lastChange = "2017-12-06 15:25:06 +0000";
layers = (
{
layerId = "AD39E6C8-8F9C-453F-B2FE-0131B3A51D2D";
paths = (
{
closed = 1;
nodes = (
"558 0 LINE",
"691 0 LINE",
"858 834 LINE",
"725 834 LINE",
"624 317 LINE",
"524 834 LINE",
"461 834 LINE",
"399 834 LINE",
"299 317 LINE",
"199 834 LINE",
"66 834 LINE",
"232 0 LINE",
"366 0 LINE",
"461 484 LINE"
);
}
);
width = 924;
}
);
unicode = 0057;
},
{
glyphname = X;
lastChange = "2017-12-06 15:25:06 +0000";
layers = (
{
layerId = "AD39E6C8-8F9C-453F-B2FE-0131B3A51D2D";
paths = (
{
closed = 1;
nodes = (
"66 0 LINE",
"208 0 LINE",
"336 283 LINE",
"466 0 LINE",
"608 0 LINE",
"408 440 LINE",
"587 834 LINE",
"445 834 LINE",
"336 596 LINE",
"228 834 LINE",
"86 834 LINE",
"266 440 LINE"
);
}
);
width = 674;
}
);
unicode = 0058;
},
{
glyphname = Y;
lastChange = "2017-12-06 15:25:06 +0000";
layers = (
{
layerId = "AD39E6C8-8F9C-453F-B2FE-0131B3A51D2D";
paths = (
{
closed = 1;
nodes = (
"400 0 LINE",
"400 334 LINE",
"608 834 LINE",
"467 834 LINE",
"338 524 LINE",
"208 834 LINE",
"66 834 LINE",
"275 334 LINE",
"275 0 LINE",
"338 0 LINE"
);
}
);
width = 674;
}
);
unicode = 0059;
},
{
glyphname = Z;
lastChange = "2017-12-06 15:25:06 +0000";
layers = (
{
layerId = "AD39E6C8-8F9C-453F-B2FE-0131B3A51D2D";
paths = (
{
closed = 1;
nodes = (
"66 125 LINE",
"446 709 LINE",
"87 709 LINE",
"87 834 LINE",
"588 834 LINE",
"588 709 LINE",
"207 125 LINE",
"608 125 LINE",
"608 0 LINE",
"66 0 LINE"
);
}
);
width = 674;
}
);
unicode = 005A;
},
{
glyphname = a;
lastChange = "2017-12-06 15:22:06 +0000";
layers = (
{
layerId = "AD39E6C8-8F9C-453F-B2FE-0131B3A51D2D";
paths = (
{
closed = 1;
nodes = (
"336 126 LINE",
"308 109 OFFCURVE",
"278 96 OFFCURVE",
"246 91 CURVE",
"244 89 OFFCURVE",
"242 89 OFFCURVE",
"242 89 CURVE",
"212 81 OFFCURVE",
"182 99 OFFCURVE",
"174 129 CURVE",
"172 144 OFFCURVE",
"172 158 OFFCURVE",
"177 173 CURVE",
"184 200 OFFCURVE",
"199 223 OFFCURVE",
"222 240 CURVE",
"253 269 OFFCURVE",
"293 289 OFFCURVE",
"336 299 CURVE"
);
},
{
closed = 1;
nodes = (
"438 576 OFFCURVE",
"338 642 OFFCURVE",
"232 621 CURVE",
"143 603 OFFCURVE",
"80 524 OFFCURVE",
"80 433 CURVE",
"207 433 LINE",
"207 459 OFFCURVE",
"224 484 OFFCURVE",
"248 494 CURVE",
"283 507 OFFCURVE",
"323 489 OFFCURVE",
"336 454 CURVE",
"336 368 LINE",
"227 363 OFFCURVE",
"125 307 OFFCURVE",
"60 215 CURVE",
"32 150 OFFCURVE",
"44 74 OFFCURVE",
"93 20 CURVE",
"115 3 OFFCURVE",
"143 -5 OFFCURVE",
"172 -5 CURVE",
"229 -8 OFFCURVE",
"286 8 OFFCURVE",
"336 38 CURVE",
"336 0 LINE",
"461 0 LINE",
"461 472 LINE"
);
}
);
width = 506;
}
);
leftMetricsKey = v;
rightMetricsKey = v;
unicode = 0061;
},
{
glyphname = adieresis;
lastChange = "2017-12-06 15:22:32 +0000";
layers = (
{
layerId = "AD39E6C8-8F9C-453F-B2FE-0131B3A51D2D";
paths = (
{
closed = 1;
nodes = (
"440 834 LINE",
"440 707 LINE",
"316 707 LINE",
"316 834 LINE"
);
},
{
closed = 1;
nodes = (
"215 834 LINE",
"215 707 LINE",
"91 707 LINE",
"91 834 LINE"
);
},
{
closed = 1;
nodes = (
"333 127 LINE",
"303 110 OFFCURVE",
"274 98 OFFCURVE",
"242 93 CURVE",
"242 91 OFFCURVE",
"240 91 OFFCURVE",
"237 91 CURVE",
"208 83 OFFCURVE",
"179 100 OFFCURVE",
"171 127 CURVE",
"169 144 OFFCURVE",
"171 159 OFFCURVE",
"176 174 CURVE",
"184 198 OFFCURVE",
"198 223 OFFCURVE",
"218 240 CURVE",
"252 269 OFFCURVE",
"291 289 OFFCURVE",
"333 298 CURVE"
);
},
{
closed = 1;
nodes = (
"436 573 OFFCURVE",
"333 639 OFFCURVE",
"230 617 CURVE",
"142 597 OFFCURVE",
"78 521 OFFCURVE",
"78 431 CURVE",
"203 431 LINE",
"203 458 OFFCURVE",
"220 482 OFFCURVE",
"247 492 CURVE",
"281 504 OFFCURVE",
"318 487 OFFCURVE",
"333 453 CURVE",
"333 367 LINE",
"223 362 OFFCURVE",
"122 306 OFFCURVE",
"61 215 CURVE",
"32 152 OFFCURVE",
"44 76 OFFCURVE",
"91 22 CURVE",
"113 5 OFFCURVE",
"140 -5 OFFCURVE",
"169 -2 CURVE",
"225 -5 OFFCURVE",
"281 10 OFFCURVE",
"333 39 CURVE",
"333 0 LINE",
"458 0 LINE",
"458 470 LINE"
);
}
);
width = 503;
}
);
leftMetricsKey = a;
rightMetricsKey = a;
unicode = 00E4;
},
{
glyphname = aring;
lastChange = "2017-12-06 15:15:25 +0000";
layers = (
{
layerId = "AD39E6C8-8F9C-453F-B2FE-0131B3A51D2D";
paths = (
{
closed = 1;
nodes = (
"252 765 OFFCURVE",
"267 777 OFFCURVE",
"282 777 CURVE",
"299 777 OFFCURVE",
"312 765 OFFCURVE",
"312 750 CURVE",
"312 732 OFFCURVE",
"299 719 OFFCURVE",
"282 719 CURVE",
"267 719 OFFCURVE",
"252 732 OFFCURVE",
"252 750 CURVE"
);
},
{
closed = 1;
nodes = (
"367 794 OFFCURVE",
"329 834 OFFCURVE",
"282 834 CURVE",
"238 834 OFFCURVE",
"197 794 OFFCURVE",
"197 750 CURVE",
"197 702 OFFCURVE",
"238 665 OFFCURVE",
"282 665 CURVE",
"329 665 OFFCURVE",
"367 702 OFFCURVE",
"367 750 CURVE"
);
},
{
closed = 1;
nodes = (
"350 127 LINE",
"322 110 OFFCURVE",
"290 100 OFFCURVE",
"260 92 CURVE",
"257 90 OFFCURVE",
"255 90 OFFCURVE",
"255 90 CURVE",
"225 83 OFFCURVE",
"195 100 OFFCURVE",
"185 130 CURVE",
"185 144 OFFCURVE",
"185 159 OFFCURVE",
"190 174 CURVE",
"197 201 OFFCURVE",
"213 224 OFFCURVE",
"233 242 CURVE",
"267 271 OFFCURVE",
"307 291 OFFCURVE",
"350 301 CURVE"
);
},
{
closed = 1;
nodes = (
"454 580 OFFCURVE",
"352 648 OFFCURVE",
"245 625 CURVE",
"155 608 OFFCURVE",
"91 528 OFFCURVE",
"91 435 CURVE",
"218 435 LINE",
"218 463 OFFCURVE",
"235 488 OFFCURVE",
"262 498 CURVE",
"297 511 OFFCURVE",
"336 493 OFFCURVE",
"350 458 CURVE",
"350 371 LINE",
"238 366 OFFCURVE",
"135 308 OFFCURVE",
"74 217 CURVE",
"43 152 OFFCURVE",
"55 75 OFFCURVE",
"103 20 CURVE",
"125 2 OFFCURVE",
"155 -5 OFFCURVE",
"182 -5 CURVE",
"243 -7 OFFCURVE",
"299 7 OFFCURVE",
"350 37 CURVE",
"350 0 LINE",
"477 0 LINE",
"477 476 LINE"
);
}
);
width = 534;
}
);
leftMetricsKey = o;
rightMetricsKey = o;
unicode = 00E5;
},
{
glyphname = b;
lastChange = "2017-12-06 15:15:25 +0000";
layers = (
{
layerId = "AD39E6C8-8F9C-453F-B2FE-0131B3A51D2D";
paths = (
{
closed = 1;
nodes = (
"474 128 LINE",
"463 56 OFFCURVE",
"399 3 OFFCURVE",
"325 0 CURVE",
"276 5 OFFCURVE",
"227 23 OFFCURVE",
"182 49 CURVE",
"182 0 LINE",
"57 0 LINE",
"57 834 LINE",
"182 834 LINE",
"182 577 LINE",
"227 601 OFFCURVE",
"276 619 OFFCURVE",
"325 626 CURVE",
"409 626 OFFCURVE",
"474 560 OFFCURVE",
"474 476 CURVE",
"474 471 LINE"
);
},
{
closed = 1;
nodes = (
"182 184 LINE",
"182 138 OFFCURVE",
"222 100 OFFCURVE",
"266 100 CURVE",
"312 100 OFFCURVE",
"350 138 OFFCURVE",
"350 184 CURVE",
"350 442 LINE",
"350 488 OFFCURVE",
"312 525 OFFCURVE",
"266 525 CURVE",
"222 525 OFFCURVE",
"182 488 OFFCURVE",
"182 442 CURVE"
);
}
);
width = 531;
}
);
leftMetricsKey = o;
rightMetricsKey = o;
unicode = 0062;
},
{
glyphname = c;
lastChange = "2017-12-06 15:15:25 +0000";
layers = (
{
layerId = "AD39E6C8-8F9C-453F-B2FE-0131B3A51D2D";
paths = (
{
closed = 1;
nodes = (
"57 208 LINE",
"57 93 OFFCURVE",
"150 0 OFFCURVE",
"265 0 CURVE",
"380 0 OFFCURVE",
"473 93 OFFCURVE",
"473 208 CURVE",
"473 211 OFFCURVE",
"473 215 OFFCURVE",
"473 218 CURVE",
"348 218 LINE",
"348 215 OFFCURVE",
"348 211 OFFCURVE",
"348 208 CURVE",
"348 164 OFFCURVE",
"309 125 OFFCURVE",
"265 125 CURVE",
"219 125 OFFCURVE",
"182 164 OFFCURVE",
"182 208 CURVE",
"182 416 LINE",
"182 419 OFFCURVE",
"182 424 OFFCURVE",
"182 426 CURVE",
"186 470 OFFCURVE",
"226 504 OFFCURVE",
"272 500 CURVE",
"319 495 OFFCURVE",
"351 456 OFFCURVE",
"348 409 CURVE",
"473 409 LINE",
"476 524 OFFCURVE",
"388 620 OFFCURVE",
"272 625 CURVE",
"158 629 OFFCURVE",
"62 541 OFFCURVE",
"57 426 CURVE",
"57 424 OFFCURVE",
"57 419 OFFCURVE",
"57 416 CURVE"
);
}
);
width = 530;
}
);
leftMetricsKey = o;
rightMetricsKey = o;
unicode = 0063;
},
{
glyphname = d;
lastChange = "2017-12-06 15:19:37 +0000";
layers = (
{
layerId = "AD39E6C8-8F9C-453F-B2FE-0131B3A51D2D";
paths = (
{
closed = 1;
nodes = (
"349 130 OFFCURVE",
"312 93 OFFCURVE",
"266 93 CURVE",
"221 93 OFFCURVE",
"182 130 OFFCURVE",
"182 177 CURVE",
"182 442 LINE",
"182 488 OFFCURVE",
"221 525 OFFCURVE",
"266 525 CURVE",
"312 525 OFFCURVE",
"349 488 OFFCURVE",
"349 442 CURVE",
"349 177 LINE"
);
},
{
closed = 1;
nodes = (
"349 834 LINE",
"349 579 LINE",
"337 586 OFFCURVE",
"325 591 OFFCURVE",
"312 596 CURVE",
"263 616 LINE",
"185 645 OFFCURVE",
"99 609 OFFCURVE",
"69 530 CURVE",
"62 513 OFFCURVE",
"57 496 OFFCURVE",
"57 476 CURVE",
"57 150 LINE",
"57 69 OFFCURVE",
"123 2 OFFCURVE",
"204 0 CURVE",
"256 0 OFFCURVE",
"305 15 OFFCURVE",
"349 39 CURVE",
"349 0 LINE",
"477 0 LINE",
"477 834 LINE"
);
}
);
width = 563;
}
);
leftMetricsKey = o;
unicode = 0064;
},
{
glyphname = e;
lastChange = "2017-12-06 15:15:25 +0000";
layers = (
{
layerId = "AD39E6C8-8F9C-453F-B2FE-0131B3A51D2D";
paths = (
{
closed = 1;
nodes = (
"343 409 LINE",
"186 409 LINE",
"182 409 LINE",
"182 414 OFFCURVE",
"182 422 OFFCURVE",
"182 426 CURVE",
"186 471 OFFCURVE",
"228 505 OFFCURVE",
"272 500 CURVE",
"319 495 OFFCURVE",
"353 456 OFFCURVE",
"348 409 CURVE"
);
},
{
closed = 1;
nodes = (
"57 208 LINE",
"57 93 OFFCURVE",
"150 0 OFFCURVE",
"265 0 CURVE",
"380 0 OFFCURVE",
"473 93 OFFCURVE",
"473 208 CURVE",
"348 208 LINE",
"348 208 OFFCURVE",
"348 208 OFFCURVE",
"348 208 CURVE",
"348 164 OFFCURVE",
"311 125 OFFCURVE",
"265 125 CURVE",
"218 125 OFFCURVE",
"182 164 OFFCURVE",
"182 208 CURVE",
"182 301 LINE",
"186 301 LINE",
"473 301 LINE",
"473 417 LINE",
"473 532 OFFCURVE",
"380 625 OFFCURVE",
"265 625 CURVE",
"150 625 OFFCURVE",
"57 532 OFFCURVE",
"57 417 CURVE"
);
}
);
width = 530;
}
);
leftMetricsKey = o;
rightMetricsKey = o;
unicode = 0065;
},
{
glyphname = f;
lastChange = "2017-12-06 15:15:25 +0000";
layers = (
{
layerId = "AD39E6C8-8F9C-453F-B2FE-0131B3A51D2D";
paths = (
{
closed = 1;
nodes = (
"256 625 LINE",
"251 625 LINE",
"251 625 OFFCURVE",
"251 625 OFFCURVE",
"251 625 CURVE",
"248 673 OFFCURVE",
"280 715 OFFCURVE",
"328 717 CURVE",
"328 844 LINE",
"213 841 OFFCURVE",
"124 747 OFFCURVE",
"124 633 CURVE",
"124 625 LINE",
"57 625 LINE",
"57 516 LINE",
"124 516 LINE",
"124 0 LINE",
"251 0 LINE",
"251 516 LINE",
"256 516 LINE",
"328 516 LINE",
"328 625 LINE"
);
}
);
width = 385;
}
);
leftMetricsKey = o;
rightMetricsKey = o;
unicode = 0066;
},
{
glyphname = g;
lastChange = "2017-12-06 15:15:25 +0000";
layers = (
{
layerId = "AD39E6C8-8F9C-453F-B2FE-0131B3A51D2D";
paths = (
{
closed = 1;
nodes = (
"351 128 OFFCURVE",
"313 90 OFFCURVE",
"267 90 CURVE",
"223 90 OFFCURVE",
"183 128 OFFCURVE",
"183 175 CURVE",
"183 437 LINE",
"183 485 OFFCURVE",
"223 522 OFFCURVE",
"267 522 CURVE",
"313 522 OFFCURVE",
"351 485 OFFCURVE",
"351 437 CURVE",
"351 175 LINE"
);
},
{
closed = 1;
nodes = (
"351 625 LINE",
"351 583 LINE",
"308 610 OFFCURVE",
"260 623 OFFCURVE",
"210 625 CURVE",
"127 625 OFFCURVE",
"57 559 OFFCURVE",
"57 475 CURVE",
"57 150 LINE",
"57 66 OFFCURVE",
"127 -3 OFFCURVE",
"208 -3 CURVE",
"257 -3 OFFCURVE",
"306 7 OFFCURVE",
"353 27 CURVE",
"351 27 OFFCURVE",
"351 24 OFFCURVE",
"351 24 CURVE",
"333 -20 OFFCURVE",
"286 -43 OFFCURVE",
"242 -25 CURVE",
"210 -148 LINE",
"321 -183 OFFCURVE",
"437 -121 OFFCURVE",
"471 -10 CURVE",
"474 -3 OFFCURVE",
"476 5 OFFCURVE",
"476 10 CURVE",
"476 625 LINE"
);
}
);
width = 533;
}
);
leftMetricsKey = o;
rightMetricsKey = o;
unicode = 0067;
},
{
glyphname = h;
lastChange = "2017-12-06 15:11:17 +0000";
layers = (
{
layerId = "AD39E6C8-8F9C-453F-B2FE-0131B3A51D2D";
paths = (
{
closed = 1;
nodes = (
"479 586 OFFCURVE",
"422 625 OFFCURVE",
"359 625 CURVE",
"309 625 OFFCURVE",
"258 613 OFFCURVE",
"214 589 CURVE",
"214 834 LINE",
"89 834 LINE",
"89 0 LINE",
"214 0 LINE",
"214 444 LINE",
"214 488 OFFCURVE",
"251 527 OFFCURVE",
"297 527 CURVE",
"344 527 OFFCURVE",
"381 488 OFFCURVE",
"381 444 CURVE",
"381 0 LINE",
"506 0 LINE",
"506 515 LINE",
"506 518 OFFCURVE",
"506 522 OFFCURVE",
"503 527 CURVE"
);
}
);
width = 563;
}
);
leftMetricsKey = n;
unicode = 0068;
},
{
glyphname = i;
lastChange = "2017-12-06 15:20:40 +0000";
layers = (
{
layerId = "AD39E6C8-8F9C-453F-B2FE-0131B3A51D2D";
paths = (
{
closed = 1;
nodes = (
"86 625 LINE",
"211 625 LINE",
"211 0 LINE",
"86 0 LINE"
);
},
{
closed = 1;
nodes = (
"211 833 LINE",
"211 708 LINE",
"86 708 LINE",
"86 833 LINE"
);
}
);
width = 297;
}
);
leftMetricsKey = n;
rightMetricsKey = d;
unicode = 0069;
},
{
glyphname = j;
lastChange = "2017-12-06 15:15:44 +0000";
layers = (
{
layerId = "AD39E6C8-8F9C-453F-B2FE-0131B3A51D2D";
paths = (
{
closed = 1;
nodes = (
"134 625 LINE",
"134 -1 LINE",
"134 -30 OFFCURVE",
"109 -55 OFFCURVE",
"80 -55 CURVE",
"57 -180 LINE",
"156 -189 OFFCURVE",
"244 -121 OFFCURVE",
"256 -23 CURVE",
"256 -15 OFFCURVE",
"259 -8 OFFCURVE",
"259 -1 CURVE",
"259 625 LINE"
);
},
{
closed = 1;
nodes = (
"134 834 LINE",
"134 708 LINE",
"259 708 LINE",
"259 834 LINE"
);
}
);
width = 316;
}
);
leftMetricsKey = o;
rightMetricsKey = o;
unicode = 006A;
},
{
glyphname = k;
lastChange = "2017-12-06 15:19:11 +0000";
layers = (
{
layerId = "AD39E6C8-8F9C-453F-B2FE-0131B3A51D2D";
paths = (
{
closed = 1;
nodes = (
"354 618 LINE",
"224 417 LINE",
"212 398 LINE",
"212 834 LINE",
"86 834 LINE",
"86 0 LINE",
"212 0 LINE",
"212 167 LINE",
"276 270 LINE",
"371 0 LINE",
"503 0 LINE",
"362 402 LINE",
"503 618 LINE"
);
}
);
width = 538;
}
);
leftMetricsKey = n;
unicode = 006B;
},
{
glyphname = l;
lastChange = "2017-12-06 15:19:43 +0000";
layers = (
{
layerId = "AD39E6C8-8F9C-453F-B2FE-0131B3A51D2D";
paths = (
{
closed = 1;
nodes = (
"86 834 LINE",
"211 834 LINE",
"211 0 LINE",
"86 0 LINE"
);
}
);
width = 297;
}
);
leftMetricsKey = n;
rightMetricsKey = d;
unicode = 006C;
},
{
glyphname = m;
lastChange = "2017-12-06 15:15:44 +0000";
layers = (
{
layerId = "AD39E6C8-8F9C-453F-B2FE-0131B3A51D2D";
paths = (
{
closed = 1;
nodes = (
"581 625 LINE",
"525 625 OFFCURVE",
"471 610 OFFCURVE",
"422 583 CURVE",
"393 610 OFFCURVE",
"356 625 OFFCURVE",
"314 625 CURVE",
"280 625 LINE",
"246 620 OFFCURVE",
"212 608 OFFCURVE",
"182 593 CURVE",
"182 625 LINE",
"57 625 LINE",
"57 0 LINE",
"182 0 LINE",
"182 441 LINE",
"182 488 OFFCURVE",
"219 525 OFFCURVE",
"265 525 CURVE",
"312 525 OFFCURVE",
"349 488 OFFCURVE",
"349 441 CURVE",
"349 0 LINE",
"474 0 LINE",
"474 441 LINE",
"474 488 OFFCURVE",
"510 525 OFFCURVE",
"557 525 CURVE",
"604 525 OFFCURVE",
"640 488 OFFCURVE",
"640 441 CURVE",
"640 0 LINE",
"765 0 LINE",
"765 466 LINE",
"765 554 OFFCURVE",
"694 625 OFFCURVE",
"606 625 CURVE"
);
}
);
width = 822;
}
);
leftMetricsKey = o;
rightMetricsKey = o;
unicode = 006D;
},
{
glyphname = n;
lastChange = "2017-12-06 15:21:24 +0000";
layers = (
{
layerId = "AD39E6C8-8F9C-453F-B2FE-0131B3A51D2D";
paths = (
{
closed = 1;
nodes = (
"314 625 LINE",
"280 620 OFFCURVE",
"245 608 OFFCURVE",
"216 593 CURVE",
"216 625 LINE",
"91 625 LINE",
"91 0 LINE",
"216 0 LINE",
"216 441 LINE",
"216 488 OFFCURVE",
"253 525 OFFCURVE",
"299 525 CURVE",
"346 525 OFFCURVE",
"383 488 OFFCURVE",
"383 441 CURVE",
"383 0 LINE",
"508 0 LINE",
"508 466 LINE",
"508 554 OFFCURVE",
"437 625 OFFCURVE",
"348 625 CURVE"
);
}
);
width = 589;
}
);
unicode = 006E;
},
{
glyphname = o;
lastChange = "2017-12-06 14:58:44 +0000";
layers = (
{
layerId = "AD39E6C8-8F9C-453F-B2FE-0131B3A51D2D";
paths = (
{
closed = 0;
nodes = (
"57 -1248 LINE"
);
},
{
closed = 1;
nodes = (
"57 93 OFFCURVE",
"150 0 OFFCURVE",
"265 0 CURVE",
"380 0 OFFCURVE",
"473 93 OFFCURVE",
"473 209 CURVE",
"473 417 LINE",
"473 532 OFFCURVE",
"380 625 OFFCURVE",
"265 625 CURVE",
"150 625 OFFCURVE",
"57 532 OFFCURVE",
"57 417 CURVE",
"57 209 LINE"
);
},
{
closed = 1;
nodes = (
"182 417 LINE",
"182 464 OFFCURVE",
"220 500 OFFCURVE",
"265 500 CURVE",
"311 500 OFFCURVE",
"348 464 OFFCURVE",
"348 417 CURVE",
"348 209 LINE",
"348 163 OFFCURVE",
"311 125 OFFCURVE",
"265 125 CURVE",
"220 125 OFFCURVE",
"182 163 OFFCURVE",
"182 209 CURVE"
);
}
);
width = 530;
}
);
unicode = 006F;
},
{
glyphname = odieresis;
lastChange = "2017-12-06 15:15:36 +0000";
layers = (
{
layerId = "AD39E6C8-8F9C-453F-B2FE-0131B3A51D2D";
paths = (
{
closed = 1;
nodes = (
"57 93 OFFCURVE",
"150 0 OFFCURVE",
"266 0 CURVE",
"381 0 OFFCURVE",
"474 93 OFFCURVE",
"474 208 CURVE",
"474 417 LINE",
"474 532 OFFCURVE",
"381 625 OFFCURVE",
"266 625 CURVE",
"150 625 OFFCURVE",
"57 532 OFFCURVE",
"57 417 CURVE",
"57 208 LINE"
);
},
{
closed = 1;
nodes = (
"442 834 LINE",
"442 709 LINE",
"317 709 LINE",
"317 834 LINE"
);
},
{
closed = 1;
nodes = (
"182 417 LINE",
"182 461 OFFCURVE",
"221 500 OFFCURVE",
"266 500 CURVE",
"312 500 OFFCURVE",
"349 461 OFFCURVE",
"349 417 CURVE",
"349 208 LINE",
"349 162 OFFCURVE",
"312 125 OFFCURVE",
"266 125 CURVE",
"221 125 OFFCURVE",
"182 162 OFFCURVE",
"182 208 CURVE"
);
},
{
closed = 1;
nodes = (
"216 834 LINE",
"216 709 LINE",
"91 709 LINE",
"91 834 LINE"
);
}
);
width = 531;
}
);
leftMetricsKey = o;
rightMetricsKey = o;
unicode = 00F6;
},
{
glyphname = p;
lastChange = "2017-12-06 15:15:36 +0000";
layers = (
{
layerId = "AD39E6C8-8F9C-453F-B2FE-0131B3A51D2D";
paths = (
{
closed = 0;
nodes = (
"57 0 LINE"
);
},
{
closed = 1;
nodes = (
"349 179 LINE",
"349 133 OFFCURVE",
"312 96 OFFCURVE",
"265 96 CURVE",
"219 96 OFFCURVE",
"182 133 OFFCURVE",
"182 179 CURVE",
"182 441 LINE",
"182 488 OFFCURVE",
"219 525 OFFCURVE",
"265 525 CURVE",
"312 525 OFFCURVE",
"349 488 OFFCURVE",
"349 441 CURVE"
);
},
{
closed = 1;
nodes = (
"275 625 OFFCURVE",
"226 610 OFFCURVE",
"182 586 CURVE",
"182 625 LINE",
"57 625 LINE",
"57 0 LINE",
"57 -166 LINE",
"182 -166 LINE",
"182 0 LINE",
"182 39 LINE",
"226 15 OFFCURVE",
"275 0 OFFCURVE",
"327 0 CURVE",
"408 3 OFFCURVE",
"474 69 OFFCURVE",
"474 150 CURVE",
"474 476 LINE",
"474 556 OFFCURVE",
"408 623 OFFCURVE",
"327 625 CURVE"
);
}
);
width = 531;
}
);
leftMetricsKey = o;
rightMetricsKey = o;
unicode = 0070;
},
{
glyphname = q;
lastChange = "2017-12-06 15:15:36 +0000";
layers = (
{
layerId = "AD39E6C8-8F9C-453F-B2FE-0131B3A51D2D";
paths = (
{
closed = 1;
nodes = (
"182 179 LINE",
"182 133 OFFCURVE",
"218 96 OFFCURVE",
"265 96 CURVE",
"312 96 OFFCURVE",
"348 133 OFFCURVE",
"348 179 CURVE",
"348 442 LINE",
"348 488 OFFCURVE",
"312 525 OFFCURVE",
"265 525 CURVE",
"218 525 OFFCURVE",
"182 488 OFFCURVE",
"182 442 CURVE"
);
},
{
closed = 1;
nodes = (
"253 625 OFFCURVE",
"304 611 OFFCURVE",
"348 586 CURVE",
"348 625 LINE",
"473 625 LINE",
"473 1 LINE",
"473 -166 LINE",
"348 -166 LINE",
"348 1 LINE",
"348 40 LINE",
"304 15 OFFCURVE",
"253 1 OFFCURVE",
"204 1 CURVE",
"120 3 OFFCURVE",
"57 69 OFFCURVE",
"57 150 CURVE",
"57 476 LINE",
"57 557 OFFCURVE",
"120 623 OFFCURVE",
"204 625 CURVE"
);
}
);
width = 530;
}
);
leftMetricsKey = o;
rightMetricsKey = o;
unicode = 0071;
},
{
glyphname = r;
lastChange = "2017-12-06 15:19:54 +0000";
layers = (
{
layerId = "AD39E6C8-8F9C-453F-B2FE-0131B3A51D2D";
paths = (
{
closed = 1;
nodes = (
"211 0 LINE",
"86 0 LINE",
"86 625 LINE",
"211 625 LINE",
"211 591 LINE",
"253 613 OFFCURVE",
"302 625 OFFCURVE",
"351 625 CURVE",
"351 493 LINE",
"319 525 OFFCURVE",
"265 525 OFFCURVE",
"233 493 CURVE",
"218 475 OFFCURVE",
"211 456 OFFCURVE",
"211 434 CURVE"
);
}
);
width = 408;
}
);
leftMetricsKey = n;
rightMetricsKey = o;
unicode = 0072;
},
{
glyphname = s;
lastChange = "2017-12-06 15:20:35 +0000";
layers = (
{
layerId = "AD39E6C8-8F9C-453F-B2FE-0131B3A51D2D";
paths = (
{
closed = 1;
nodes = (
"255 625 LINE",
"165 625 OFFCURVE",
"89 551 OFFCURVE",
"89 458 CURVE",
"89 397 OFFCURVE",
"123 341 OFFCURVE",
"175 311 CURVE",
"312 238 LINE",
"314 235 OFFCURVE",
"317 233 OFFCURVE",
"322 230 CURVE",
"346 211 OFFCURVE",
"351 169 OFFCURVE",
"329 145 CURVE",
"312 127 OFFCURVE",
"287 118 OFFCURVE",
"265 118 CURVE",
"214 118 OFFCURVE",
"172 157 OFFCURVE",
"172 208 CURVE",
"57 208 LINE",
"57 93 OFFCURVE",
"150 0 OFFCURVE",
"265 0 CURVE",
"346 0 OFFCURVE",
"420 47 OFFCURVE",
"454 120 CURVE",
"483 206 OFFCURVE",
"449 301 OFFCURVE",
"368 343 CURVE",
"233 419 LINE",
"219 426 OFFCURVE",
"209 441 OFFCURVE",
"209 458 CURVE",
"209 483 OFFCURVE",
"231 505 OFFCURVE",
"255 505 CURVE",
"280 505 LINE",
"307 505 OFFCURVE",
"327 483 OFFCURVE",
"327 458 CURVE",
"447 458 LINE",
"447 551 OFFCURVE",
"373 625 OFFCURVE",
"280 625 CURVE"
);
}
);
width = 521;
}
);
leftMetricsKey = o;
unicode = 0073;
},
{
glyphname = t;
lastChange = "2017-12-06 15:15:36 +0000";
layers = (
{
layerId = "AD39E6C8-8F9C-453F-B2FE-0131B3A51D2D";
paths = (
{
closed = 1;
nodes = (
"258 625 LINE",
"258 834 LINE",
"133 834 LINE",
"133 625 LINE",
"57 625 LINE",
"57 500 LINE",
"133 500 LINE",
"133 199 LINE",
"133 91 OFFCURVE",
"216 3 OFFCURVE",
"325 -2 CURVE",
"325 123 LINE",
"285 128 OFFCURVE",
"258 160 OFFCURVE",
"258 199 CURVE",
"258 404 LINE",
"258 500 LINE",
"325 500 LINE",
"325 625 LINE"
);
}
);
width = 382;
}
);
leftMetricsKey = o;
rightMetricsKey = o;
unicode = 0074;
},
{
glyphname = u;
lastChange = "2017-12-06 15:21:42 +0000";
layers = (
{
layerId = "AD39E6C8-8F9C-453F-B2FE-0131B3A51D2D";
paths = (
{
closed = 1;
nodes = (
"375 625 LINE",
"375 174 LINE",
"375 130 OFFCURVE",
"336 91 OFFCURVE",
"292 91 CURVE",
"246 91 OFFCURVE",
"206 130 OFFCURVE",
"206 174 CURVE",
"206 625 LINE",
"81 625 LINE",
"81 149 LINE",
"81 69 OFFCURVE",
"148 2 OFFCURVE",
"228 0 CURVE",
"280 0 OFFCURVE",
"329 15 OFFCURVE",
"375 39 CURVE",
"375 0 LINE",
"501 0 LINE",
"501 625 LINE"
);
}
);
width = 592;
}
);
unicode = 0075;
},
{
glyphname = v;
lastChange = "2017-12-06 15:21:51 +0000";
layers = (
{
layerId = "AD39E6C8-8F9C-453F-B2FE-0131B3A51D2D";
paths = (
{
closed = 1;
nodes = (
"212 0 LINE",
"337 0 LINE",
"503 625 LINE",
"378 625 LINE",
"275 233 LINE",
"170 625 LINE",
"45 625 LINE"
);
}
);
width = 548;
}
);
unicode = 0076;
},
{
glyphname = w;
lastChange = "2017-12-06 15:15:36 +0000";
layers = (
{
layerId = "AD39E6C8-8F9C-453F-B2FE-0131B3A51D2D";
paths = (
{
closed = 1;
nodes = (
"432 314 LINE",
"349 0 LINE",
"224 0 LINE",
"57 625 LINE",
"182 625 LINE",
"288 235 LINE",
"391 625 LINE",
"474 625 LINE",
"579 235 LINE",
"682 625 LINE",
"807 625 LINE",
"641 0 LINE",
"516 0 LINE"
);
}
);
width = 864;
}
);
leftMetricsKey = o;
rightMetricsKey = o;
unicode = 0077;
},
{
glyphname = x;
lastChange = "2017-12-06 15:15:36 +0000";
layers = (
{
layerId = "AD39E6C8-8F9C-453F-B2FE-0131B3A51D2D";
paths = (
{
closed = 1;
nodes = (
"494 625 LINE",
"369 625 LINE",
"285 458 LINE",
"202 625 LINE",
"77 625 LINE",
"224 333 LINE",
"57 0 LINE",
"182 0 LINE",
"285 208 LINE",
"391 0 LINE",
"516 0 LINE",
"349 333 LINE"
);
}
);
width = 573;
}
);
leftMetricsKey = o;
rightMetricsKey = o;
unicode = 0078;
},
{
glyphname = y;
lastChange = "2017-12-06 15:15:36 +0000";
layers = (
{
layerId = "AD39E6C8-8F9C-453F-B2FE-0131B3A51D2D";
paths = (
{
closed = 1;
nodes = (
"388 625 LINE",
"287 249 LINE",
"188 625 LINE",
"57 625 LINE",
"208 63 LINE",
"210 61 OFFCURVE",
"215 61 OFFCURVE",
"218 58 CURVE",
"235 51 OFFCURVE",
"242 31 OFFCURVE",
"235 14 CURVE",
"225 -3 LINE",
"215 -28 OFFCURVE",
"190 -43 OFFCURVE",
"161 -43 CURVE",
"121 -162 LINE",
"228 -182 OFFCURVE",
"329 -115 OFFCURVE",
"351 -11 CURVE",
"351 -6 OFFCURVE",
"354 -1 OFFCURVE",
"354 6 CURVE",
"519 625 LINE"
);
}
);
width = 576;
}
);
leftMetricsKey = o;
rightMetricsKey = o;
unicode = 0079;
},
{
glyphname = z;
lastChange = "2017-12-06 15:15:36 +0000";
layers = (
{
layerId = "AD39E6C8-8F9C-453F-B2FE-0131B3A51D2D";
paths = (
{
closed = 1;
nodes = (
"57 125 LINE",
"353 500 LINE",
"79 500 LINE",
"79 625 LINE",
"495 625 LINE",
"495 500 LINE",
"199 125 LINE",
"515 125 LINE",
"515 0 LINE",
"57 0 LINE"
);
}
);
width = 572;
}
);
leftMetricsKey = o;
rightMetricsKey = o;
unicode = 007A;
},
{
glyphname = zero;
lastChange = "2017-12-06 14:01:50 +0000";
layers = (
{
layerId = "AD39E6C8-8F9C-453F-B2FE-0131B3A51D2D";
paths = (
{
closed = 1;
nodes = (
"400 172 OFFCURVE",
"354 125 OFFCURVE",
"295 125 CURVE",
"238 125 OFFCURVE",
"192 172 OFFCURVE",
"192 228 CURVE",
"192 603 LINE",
"192 662 OFFCURVE",
"238 709 OFFCURVE",
"295 709 CURVE",
"354 709 OFFCURVE",
"400 662 OFFCURVE",
"400 603 CURVE",
"400 228 LINE"
);
},
{
closed = 1;
nodes = (
"525 731 OFFCURVE",
"422 834 OFFCURVE",
"295 834 CURVE",
"170 834 OFFCURVE",
"67 731 OFFCURVE",
"67 603 CURVE",
"67 228 LINE",
"67 103 OFFCURVE",
"170 0 OFFCURVE",
"295 0 CURVE",
"422 0 OFFCURVE",
"525 103 OFFCURVE",
"525 228 CURVE",
"525 603 LINE"
);
}
);
width = 600;
}
);
unicode = 0030;
},
{
glyphname = one;
lastChange = "2017-12-06 14:02:09 +0000";
layers = (
{
layerId = "AD39E6C8-8F9C-453F-B2FE-0131B3A51D2D";
paths = (
{
closed = 1;
nodes = (
"230 736 OFFCURVE",
"267 780 OFFCURVE",
"284 834 CURVE",
"409 834 LINE",
"409 0 LINE",
"284 0 LINE",
"284 643 LINE",
"193 626 LINE",
"181 711 LINE"
);
}
);
width = 600;
}
);
unicode = 0031;
},
{
glyphname = two;
lastChange = "2017-12-06 14:02:29 +0000";
layers = (
{
layerId = "AD39E6C8-8F9C-453F-B2FE-0131B3A51D2D";
paths = (
{
closed = 1;
nodes = (
"109 562 LINE",
"234 562 LINE",
"234 591 LINE",
"231 618 OFFCURVE",
"239 645 OFFCURVE",
"253 667 CURVE",
"288 714 OFFCURVE",
"354 721 OFFCURVE",
"400 687 CURVE",
"447 653 OFFCURVE",
"454 589 OFFCURVE",
"420 542 CURVE",
"109 125 LINE",
"109 0 LINE",
"567 0 LINE",
"567 125 LINE",
"266 125 LINE",
"521 466 LINE",
"597 569 OFFCURVE",
"577 711 OFFCURVE",
"474 787 CURVE",
"373 863 OFFCURVE",
"229 844 OFFCURVE",
"153 741 CURVE",
"123 702 OFFCURVE",
"109 655 OFFCURVE",
"109 603 CURVE"
);
}
);
width = 600;
}
);
unicode = 0032;
},
{
glyphname = three;
lastChange = "2017-12-06 14:02:52 +0000";
layers = (
{
layerId = "AD39E6C8-8F9C-453F-B2FE-0131B3A51D2D";
paths = (
{
closed = 1;
nodes = (
"527 287 LINE",
"527 351 OFFCURVE",
"500 412 OFFCURVE",
"454 454 CURVE",
"488 493 OFFCURVE",
"505 542 OFFCURVE",
"505 591 CURVE",
"505 626 LINE",
"505 741 OFFCURVE",
"412 834 OFFCURVE",
"297 834 CURVE",
"181 834 OFFCURVE",
"88 741 OFFCURVE",
"88 626 CURVE",
"213 626 LINE",
"213 672 OFFCURVE",
"252 709 OFFCURVE",
"297 709 CURVE",
"343 709 OFFCURVE",
"380 672 OFFCURVE",
"380 626 CURVE",
"380 591 LINE",
"380 545 OFFCURVE",
"343 508 OFFCURVE",
"297 508 CURVE",
"265 508 LINE",
"265 393 LINE",
"297 393 LINE",
"355 393 OFFCURVE",
"402 346 OFFCURVE",
"402 287 CURVE",
"402 228 LINE",
"402 172 OFFCURVE",
"355 125 OFFCURVE",
"297 125 CURVE",
"240 125 OFFCURVE",
"194 172 OFFCURVE",
"194 228 CURVE",
"68 228 LINE",
"68 103 OFFCURVE",
"171 0 OFFCURVE",
"297 0 CURVE",
"424 0 OFFCURVE",
"527 103 OFFCURVE",
"527 228 CURVE"
);
}
);
width = 600;
}
);
unicode = 0033;
},
{
glyphname = four;
lastChange = "2017-12-06 14:03:14 +0000";
layers = (
{
layerId = "AD39E6C8-8F9C-453F-B2FE-0131B3A51D2D";
paths = (
{
closed = 1;
nodes = (
"200 292 LINE",
"364 581 LINE",
"364 292 LINE"
);
},
{
closed = 1;
nodes = (
"364 834 LINE",
"55 292 LINE",
"55 167 LINE",
"364 167 LINE",
"364 0 LINE",
"490 0 LINE",
"490 167 LINE",
"556 167 LINE",
"556 292 LINE",
"490 292 LINE",
"490 834 LINE"
);
}
);
width = 600;
}
);
unicode = 0034;
},
{
glyphname = five;
lastChange = "2017-12-06 14:03:32 +0000";
layers = (
{
layerId = "AD39E6C8-8F9C-453F-B2FE-0131B3A51D2D";
paths = (
{
closed = 1;
nodes = (
"229 709 LINE",
"457 709 LINE",
"450 834 LINE",
"116 834 LINE",
"74 417 LINE",
"219 383 LINE",
"239 410 OFFCURVE",
"271 424 OFFCURVE",
"302 424 CURVE",
"361 424 OFFCURVE",
"408 378 OFFCURVE",
"408 321 CURVE",
"408 228 LINE",
"408 172 OFFCURVE",
"361 125 OFFCURVE",
"302 125 CURVE",
"246 125 OFFCURVE",
"199 172 OFFCURVE",
"199 228 CURVE",
"74 228 LINE",
"74 103 OFFCURVE",
"177 0 OFFCURVE",
"302 0 CURVE",
"430 0 OFFCURVE",
"533 103 OFFCURVE",
"533 228 CURVE",
"533 321 LINE",
"533 446 OFFCURVE",
"430 549 OFFCURVE",
"302 549 CURVE",
"271 549 OFFCURVE",
"241 545 OFFCURVE",
"212 530 CURVE"
);
}
);
width = 600;
}
);
unicode = 0035;
},
{
glyphname = six;
lastChange = "2017-12-06 14:03:57 +0000";
layers = (
{
layerId = "AD39E6C8-8F9C-453F-B2FE-0131B3A51D2D";
paths = (
{
closed = 1;
nodes = (
"401 169 OFFCURVE",
"362 130 OFFCURVE",
"313 125 CURVE",
"254 120 OFFCURVE",
"203 162 OFFCURVE",
"195 221 CURVE",
"195 263 LINE",
"198 319 OFFCURVE",
"242 366 OFFCURVE",
"301 366 CURVE",
"357 368 OFFCURVE",
"406 321 OFFCURVE",
"406 263 CURVE",
"406 221 LINE"
);
},
{
closed = 1;
nodes = (
"445 834 LINE",
"288 834 LINE",
"257 795 OFFCURVE",
"225 756 OFFCURVE",
"198 714 CURVE",
"136 626 OFFCURVE",
"97 525 OFFCURVE",
"80 420 CURVE",
"75 370 LINE",
"70 277 LINE",
"70 236 LINE",
"68 108 OFFCURVE",
"168 3 OFFCURVE",
"293 0 CURVE",
"421 -2 OFFCURVE",
"524 96 OFFCURVE",
"529 221 CURVE",
"529 263 LINE",
"529 390 OFFCURVE",
"426 491 OFFCURVE",
"298 491 CURVE",
"271 491 OFFCURVE",
"244 486 OFFCURVE",
"220 476 CURVE",
"242 557 OFFCURVE",
"284 633 OFFCURVE",
"338 697 CURVE"
);
}
);
width = 600;
}
);
unicode = 0036;
},
{
glyphname = seven;
lastChange = "2017-12-06 14:04:13 +0000";
layers = (
{
layerId = "AD39E6C8-8F9C-453F-B2FE-0131B3A51D2D";
paths = (
{
closed = 1;
nodes = (
"414 461 LINE",
"426 491 LINE",
"470 599 OFFCURVE",
"497 716 OFFCURVE",
"502 834 CURVE",
"112 834 LINE",
"112 709 LINE",
"387 709 LINE",
"372 628 OFFCURVE",
"345 549 OFFCURVE",
"308 473 CURVE",
"299 446 LINE",
"264 341 OFFCURVE",
"245 228 OFFCURVE",
"245 115 CURVE",
"245 0 LINE",
"308 0 LINE",
"370 0 LINE",
"370 157 LINE",
"370 258 OFFCURVE",
"384 356 OFFCURVE",
"411 451 CURVE"
);
}
);
width = 600;
}
);
unicode = 0037;
},
{
glyphname = eight;
lastChange = "2017-12-06 14:04:42 +0000";
layers = (
{
layerId = "AD39E6C8-8F9C-453F-B2FE-0131B3A51D2D";
paths = (
{
closed = 1;
nodes = (
"197 287 LINE",
"197 346 OFFCURVE",
"244 393 OFFCURVE",
"303 393 CURVE",
"359 393 OFFCURVE",
"406 346 OFFCURVE",
"406 287 CURVE",
"406 228 LINE",
"406 172 OFFCURVE",
"359 125 OFFCURVE",
"303 125 CURVE",
"244 125 OFFCURVE",
"197 172 OFFCURVE",
"197 228 CURVE"
);
},
{
closed = 1;
nodes = (
"99 412 OFFCURVE",
"72 351 OFFCURVE",
"72 287 CURVE",
"72 228 LINE",
"72 103 OFFCURVE",
"175 0 OFFCURVE",
"303 0 CURVE",
"428 0 OFFCURVE",
"531 103 OFFCURVE",
"531 228 CURVE",
"531 287 LINE",
"531 351 OFFCURVE",
"504 412 OFFCURVE",
"460 454 CURVE",
"491 493 OFFCURVE",
"511 542 OFFCURVE",
"511 591 CURVE",
"511 626 LINE",
"511 741 OFFCURVE",
"418 834 OFFCURVE",
"303 834 CURVE",
"187 834 OFFCURVE",
"94 741 OFFCURVE",
"94 626 CURVE",
"94 591 LINE",
"94 542 OFFCURVE",
"111 493 OFFCURVE",
"146 454 CURVE"
);
},
{
closed = 1;
nodes = (
"219 672 OFFCURVE",
"256 709 OFFCURVE",
"303 709 CURVE",
"347 709 OFFCURVE",
"386 672 OFFCURVE",
"386 626 CURVE",
"386 591 LINE",
"386 545 OFFCURVE",
"347 508 OFFCURVE",
"303 508 CURVE",
"256 508 OFFCURVE",
"219 545 OFFCURVE",
"219 591 CURVE",
"219 626 LINE"
);
}
);
width = 600;
}
);
unicode = 0038;
},
{
glyphname = nine;
lastChange = "2017-12-06 14:05:02 +0000";
layers = (
{
layerId = "AD39E6C8-8F9C-453F-B2FE-0131B3A51D2D";
paths = (
{
closed = 1;
nodes = (
"197 665 OFFCURVE",
"239 704 OFFCURVE",
"288 709 CURVE",
"347 714 OFFCURVE",
"399 672 OFFCURVE",
"403 613 CURVE",
"403 572 LINE",
"403 515 OFFCURVE",
"357 469 OFFCURVE",
"300 466 CURVE",
"242 466 OFFCURVE",
"195 513 OFFCURVE",
"193 572 CURVE",
"193 613 LINE"
);
},
{
closed = 1;
nodes = (
"531 599 LINE",
"533 726 OFFCURVE",
"433 832 OFFCURVE",
"305 834 CURVE",
"180 836 OFFCURVE",
"77 738 OFFCURVE",
"70 613 CURVE",
"70 572 LINE",
"72 444 OFFCURVE",
"175 343 OFFCURVE",
"303 343 CURVE",
"330 343 OFFCURVE",
"357 348 OFFCURVE",
"381 358 CURVE",
"357 277 OFFCURVE",
"318 201 OFFCURVE",
"264 137 CURVE",
"156 0 LINE",
"313 0 LINE",
"345 37 OFFCURVE",
"374 79 OFFCURVE",
"403 120 CURVE",
"462 206 OFFCURVE",
"504 307 OFFCURVE",
"521 412 CURVE",
"526 464 LINE",
"531 557 LINE"
);
}
);
width = 600;
}
);
unicode = 0039;
},
{
glyphname = period;
lastChange = "2017-12-06 13:59:36 +0000";
layers = (
{
layerId = "AD39E6C8-8F9C-453F-B2FE-0131B3A51D2D";
paths = (
{
closed = 1;
nodes = (
"246 98 OFFCURVE",
"275 125 OFFCURVE",
"309 125 CURVE",
"344 125 OFFCURVE",
"371 98 OFFCURVE",
"371 63 CURVE",
"371 29 OFFCURVE",
"344 0 OFFCURVE",
"309 0 CURVE",
"275 0 OFFCURVE",
"246 29 OFFCURVE",
"246 63 CURVE",
"246 63 LINE"
);
}
);
width = 600;
}
);
unicode = 002E;
},
{
glyphname = comma;
lastChange = "2017-12-06 13:50:13 +0000";
layers = (
{
layerId = "AD39E6C8-8F9C-453F-B2FE-0131B3A51D2D";
paths = (
{
closed = 1;
nodes = (
"353 10 LINE",
"382 32 OFFCURVE",
"387 72 OFFCURVE",
"365 98 CURVE",
"343 125 OFFCURVE",
"304 130 OFFCURVE",
"277 111 CURVE",
"263 98 OFFCURVE",
"253 79 OFFCURVE",
"253 62 CURVE",
"253 -105 LINE"
);
}
);
width = 600;
}
);
unicode = 002C;
},
{
glyphname = colon;
lastChange = "2017-12-06 13:52:46 +0000";
layers = (
{
layerId = "AD39E6C8-8F9C-453F-B2FE-0131B3A51D2D";
paths = (
{
closed = 1;
nodes = (
"246 316 OFFCURVE",
"275 345 OFFCURVE",
"309 345 CURVE",
"344 345 OFFCURVE",
"371 316 OFFCURVE",
"371 281 CURVE",
"371 247 OFFCURVE",
"344 220 OFFCURVE",
"309 220 CURVE",
"275 220 OFFCURVE",
"246 247 OFFCURVE",
"246 281 CURVE",
"246 281 LINE"
);
},
{
closed = 1;
nodes = (
"246 98 OFFCURVE",
"275 125 OFFCURVE",
"309 125 CURVE",
"344 125 OFFCURVE",
"371 98 OFFCURVE",
"371 63 CURVE",
"371 29 OFFCURVE",
"344 0 OFFCURVE",
"309 0 CURVE",
"275 0 OFFCURVE",
"246 29 OFFCURVE",
"246 63 CURVE",
"246 63 LINE"
);
}
);
width = 600;
}
);
unicode = 003A;
},
{
glyphname = semicolon;
lastChange = "2017-12-06 13:50:04 +0000";
layers = (
{
layerId = "AD39E6C8-8F9C-453F-B2FE-0131B3A51D2D";
paths = (
{
closed = 1;
nodes = (
"248 312 OFFCURVE",
"275 341 OFFCURVE",
"309 341 CURVE",
"344 341 OFFCURVE",
"373 312 OFFCURVE",
"373 277 CURVE",
"373 243 OFFCURVE",
"344 216 OFFCURVE",
"309 216 CURVE",
"275 216 OFFCURVE",
"248 243 OFFCURVE",
"248 277 CURVE",
"248 277 LINE"
);
},
{
closed = 1;
nodes = (
"349 10 LINE",
"375 30 OFFCURVE",
"380 69 OFFCURVE",
"358 98 CURVE",
"339 125 OFFCURVE",
"299 130 OFFCURVE",
"272 108 CURVE",
"255 96 OFFCURVE",
"248 79 OFFCURVE",
"248 59 CURVE",
"248 -108 LINE"
);
}
);
width = 600;
}
);
unicode = 003B;
},
{
glyphname = exclam;
lastChange = "2017-12-06 13:53:34 +0000";
layers = (
{
layerId = "AD39E6C8-8F9C-453F-B2FE-0131B3A51D2D";
paths = (
{
closed = 1;
nodes = (
"368 834 LINE",
"368 194 LINE",
"243 194 LINE",
"243 834 LINE"
);
},
{
closed = 1;
nodes = (
"243 98 OFFCURVE",
"270 125 OFFCURVE",
"304 125 CURVE",
"339 125 OFFCURVE",
"368 98 OFFCURVE",
"368 61 CURVE",
"368 27 OFFCURVE",
"339 0 OFFCURVE",
"304 0 CURVE",
"270 0 OFFCURVE",
"243 27 OFFCURVE",
"243 61 CURVE",
"243 61 LINE"
);
}
);
width = 600;
}
);
unicode = 0021;
},
{
glyphname = question;
lastChange = "2017-12-06 13:54:28 +0000";
layers = (
{
layerId = "AD39E6C8-8F9C-453F-B2FE-0131B3A51D2D";
paths = (
{
closed = 1;
nodes = (
"365 300 OFFCURVE",
"371 319 OFFCURVE",
"383 339 CURVE",
"529 462 LINE",
"604 568 OFFCURVE",
"577 716 OFFCURVE",
"472 792 CURVE",
"433 819 OFFCURVE",
"383 834 OFFCURVE",
"337 834 CURVE",
"187 852 OFFCURVE",
"50 745 OFFCURVE",
"34 597 CURVE",
"31 585 OFFCURVE",
"31 576 OFFCURVE",
"31 564 CURVE",
"157 564 LINE",
"157 573 OFFCURVE",
"157 580 OFFCURVE",
"160 591 CURVE",
"172 669 OFFCURVE",
"248 723 OFFCURVE",
"329 708 CURVE",
"349 708 OFFCURVE",
"371 706 OFFCURVE",
"388 696 CURVE",
"442 666 OFFCURVE",
"463 597 OFFCURVE",
"434 546 CURVE",
"292 426 LINE",
"257 384 OFFCURVE",
"241 331 OFFCURVE",
"241 277 CURVE",
"241 193 LINE",
"365 193 LINE",
"365 277 LINE"
);
},
{
closed = 1;
nodes = (
"241 96 OFFCURVE",
"268 124 OFFCURVE",
"302 124 CURVE",
"337 124 OFFCURVE",
"365 96 OFFCURVE",
"365 61 CURVE",
"365 27 OFFCURVE",
"337 0 OFFCURVE",
"302 0 CURVE",
"268 0 OFFCURVE",
"241 27 OFFCURVE",
"241 61 CURVE",
"241 61 LINE"
);
}
);
width = 600;
}
);
unicode = 003F;
},
{
glyphname = parenleft;
lastChange = "2017-12-06 13:55:38 +0000";
layers = (
{
layerId = "AD39E6C8-8F9C-453F-B2FE-0131B3A51D2D";
paths = (
{
closed = 1;
nodes = (
"441 243 OFFCURVE",
"441 587 OFFCURVE",
"255 841 CURVE",
"277 822 OFFCURVE",
"296 800 OFFCURVE",
"316 778 CURVE",
"516 543 OFFCURVE",
"489 192 OFFCURVE",
"255 -8 CURVE"
);
}
);
width = 600;
}
);
unicode = 0028;
},
{
glyphname = parenright;
lastChange = "2017-12-06 13:56:11 +0000";
layers = (
{
layerId = "AD39E6C8-8F9C-453F-B2FE-0131B3A51D2D";
paths = (
{
closed = 1;
nodes = (
"194 590 OFFCURVE",
"194 246 OFFCURVE",
"380 -8 CURVE",
"358 11 OFFCURVE",
"339 33 OFFCURVE",
"319 55 CURVE",
"119 290 OFFCURVE",
"146 641 OFFCURVE",
"380 841 CURVE"
);
}
);
width = 600;
}
);
unicode = 0029;
},
{
glyphname = hyphen;
lastChange = "2017-12-06 13:57:17 +0000";
layers = (
{
layerId = "AD39E6C8-8F9C-453F-B2FE-0131B3A51D2D";
paths = (
{
closed = 1;
nodes = (
"416 216 LINE",
"416 341 LINE",
"185 341 LINE",
"185 216 LINE"
);
}
);
width = 600;
}
);
unicode = 002D;
},
